<?xml version="1.0" encoding="UTF-8"?>
<svg xmlns="http://www.w3.org/2000/svg" xmlns:xlink="http://www.w3.org/1999/xlink" width="25pt" height="25pt" viewBox="0 0 25 25" version="1.1">
<g id="surface284545">
<path style="fill-rule:nonzero;fill:rgb(0%,0%,0%);fill-opacity:1;stroke-width:1;stroke-linecap:butt;stroke-linejoin:round;stroke:rgb(60.784314%,34.901961%,71.372549%);stroke-opacity:1;stroke-miterlimit:10;" d="M 225.992909 113 L 225.992909 179.902297 C 225.992909 182.384099 223.972013 184.404995 221.490211 184.404995 L 4.509789 184.404995 C 2.027987 184.404995 0.00709086 182.384099 0.00709086 179.902297 L 0.00709086 94.918298 C 0.00709086 87.437437 6.105233 81.374749 13.55064 81.374749 L 72.333898 81.374749 L 72.333898 54.252196 C 72.333898 46.771335 78.396586 40.673193 85.877447 40.673193 L 140.122553 40.673193 C 147.603414 40.673193 153.666102 46.771335 153.666102 54.252196 L 153.666102 99.456451 L 212.44936 99.456451 C 219.894767 99.456451 225.992909 105.519139 225.992909 113 Z M 54.252196 134.237136 L 40.673193 134.237136 C 40.673193 133.811684 41.134099 132.889872 41.134099 131.96806 C 42.055911 131.081702 42.942269 130.195344 43.828627 129.273532 L 47.905873 125.231739 C 48.827686 124.309927 49.714044 123.388115 50.635856 122.501757 C 51.522214 121.615399 51.98312 120.693587 52.444026 119.771775 C 52.869478 118.885417 53.330384 117.963604 53.330384 117.077246 C 53.79129 116.155434 53.79129 115.269076 53.79129 113.886358 C 53.79129 110.730924 52.869478 108.497302 51.096762 106.689132 C 49.253138 104.845507 46.558609 103.959149 42.942269 103.959149 C 38.865023 103.959149 36.170494 104.845507 34.362324 106.689132 C 32.554154 108.497302 31.632342 110.730924 31.632342 114.347264 L 31.632342 115.729982 L 38.865023 115.729982 C 38.865023 114.80817 38.865023 113.886358 38.865023 113 C 38.865023 112.113642 38.865023 111.19183 39.325929 110.730924 C 39.786835 110.305472 40.212287 109.844566 40.673193 109.38366 C 41.134099 108.922754 42.055911 108.922754 42.942269 108.922754 C 45.211345 108.922754 46.558609 110.305472 46.558609 113.460906 C 46.558609 114.80817 46.558609 115.269076 46.558609 116.155434 C 46.558609 116.61634 46.558609 117.502698 46.097703 117.963604 C 45.672252 118.424511 45.211345 119.346323 44.750439 119.771775 C 44.289533 120.232681 43.828627 120.693587 42.942269 121.579945 L 39.786835 124.309927 C 38.404116 125.657191 37.056852 126.543549 36.170494 127.926268 C 34.787776 128.812626 33.901418 130.195344 33.440512 131.542608 C 33.01506 132.889872 32.554154 134.237136 32.093248 135.5844 C 31.632342 136.967118 31.632342 138.314383 31.632342 140.122553 L 54.252196 140.122553 Z M 117.502698 63.293047 L 112.113642 63.293047 C 111.652736 65.526669 110.730924 66.909388 109.38366 67.795745 C 108.036396 68.717558 105.767319 69.14301 103.498243 69.14301 L 103.072791 69.14301 L 103.072791 74.106614 L 110.270018 74.106614 L 110.270018 99.456451 L 117.502698 99.456451 Z M 194.828564 148.277046 C 194.828564 146.007969 194.367658 143.738893 193.445846 142.391629 C 192.524034 141.008911 190.751318 140.122553 188.482241 139.661647 C 190.290412 139.236195 191.637676 138.314383 192.559488 136.967118 C 193.445846 135.5844 193.906752 133.811684 193.906752 131.542608 C 193.906752 127.926268 192.98494 125.657191 191.212224 124.309927 C 189.404054 122.927209 186.674071 122.040851 183.518637 122.040851 C 180.327748 122.040851 177.63322 122.927209 175.82505 124.735379 C 174.01688 126.543549 173.130522 129.273532 173.130522 132.889872 L 179.902297 132.889872 C 179.902297 131.96806 179.902297 131.507154 179.902297 130.620796 C 179.902297 130.195344 179.902297 129.273532 180.327748 128.812626 C 180.788655 128.351719 181.249561 127.926268 181.710467 127.465361 C 182.171373 127.004455 182.596825 127.004455 183.518637 127.004455 C 184.865901 127.004455 185.752259 127.004455 186.213165 127.926268 C 186.674071 128.351719 187.134977 129.734438 187.134977 131.507154 C 187.134977 132.428966 186.674071 132.889872 186.674071 133.77623 C 186.213165 134.698042 186.213165 135.123494 185.752259 135.5844 C 185.326807 136.045306 184.865901 136.506212 184.404995 136.967118 C 183.944089 137.39257 183.518637 137.39257 182.596825 137.39257 L 180.327748 137.39257 L 180.327748 142.391629 L 182.596825 142.391629 C 183.518637 142.391629 184.404995 142.391629 184.865901 142.852535 C 185.326807 143.277987 185.787713 143.738893 186.213165 144.199799 C 186.674071 144.625251 187.134977 145.086157 187.134977 146.007969 C 187.134977 146.468876 187.134977 147.355233 187.134977 148.277046 C 187.134977 149.163404 187.134977 149.62431 187.134977 150.510668 C 187.134977 150.971574 187.134977 151.893386 186.674071 152.318838 C 186.213165 152.74429 185.787713 153.205196 185.326807 153.666102 C 184.865901 154.127008 183.944089 154.127008 183.057731 154.127008 C 181.710467 154.127008 180.363203 153.205196 179.902297 152.318838 C 179.441391 150.971574 179.015939 149.588855 179.902297 148.277046 L 172.669616 148.277046 C 172.669616 151.857932 173.591428 154.587914 175.364144 156.396084 C 176.746862 158.204255 179.441391 159.090612 183.057731 159.090612 C 185.326807 159.090612 187.595884 158.665161 188.943148 158.204255 C 190.290412 157.282442 191.637676 156.396084 192.559488 155.509726 C 193.445846 154.127008 193.906752 153.24065 194.367658 151.893386 C 194.828564 150.510668 194.828564 149.62431 194.828564 148.277046 Z M 194.828564 148.277046 " transform="matrix(0.110177,0,0,0.110177,0.05,0.05)"/>
<path style=" stroke:none;fill-rule:nonzero;fill:rgb(100%,100%,100%);fill-opacity:1;" d="M 23.457031 11.007812 L 16.980469 11.007812 L 16.980469 6.027344 C 16.980469 5.203125 16.3125 4.53125 15.488281 4.53125 L 9.511719 4.53125 C 8.6875 4.53125 8.019531 5.203125 8.019531 6.027344 L 8.019531 9.015625 L 1.542969 9.015625 C 0.722656 9.015625 0.0507812 9.683594 0.0507812 10.507812 L 0.0507812 19.871094 C 0.0507812 20.144531 0.273438 20.367188 0.546875 20.367188 L 24.453125 20.367188 C 24.726562 20.367188 24.949219 20.144531 24.949219 19.871094 L 24.949219 12.5 C 24.949219 11.675781 24.277344 11.007812 23.457031 11.007812 Z M 6.027344 15.488281 L 3.535156 15.488281 C 3.535156 15.289062 3.535156 15.140625 3.585938 14.988281 C 3.636719 14.839844 3.6875 14.691406 3.734375 14.542969 C 3.785156 14.394531 3.882812 14.242188 4.035156 14.144531 C 4.132812 13.992188 4.28125 13.894531 4.433594 13.746094 L 4.78125 13.445312 C 4.878906 13.347656 4.929688 13.296875 4.980469 13.246094 C 5.03125 13.199219 5.082031 13.097656 5.128906 13.046875 C 5.179688 12.996094 5.179688 12.898438 5.179688 12.847656 C 5.179688 12.75 5.179688 12.699219 5.179688 12.550781 C 5.179688 12.203125 5.03125 12.050781 4.78125 12.050781 C 4.683594 12.050781 4.582031 12.050781 4.53125 12.101562 C 4.480469 12.152344 4.433594 12.203125 4.382812 12.25 C 4.332031 12.300781 4.332031 12.402344 4.332031 12.5 C 4.332031 12.597656 4.332031 12.699219 4.332031 12.800781 L 3.535156 12.800781 L 3.535156 12.648438 C 3.535156 12.25 3.636719 12.003906 3.835938 11.804688 C 4.035156 11.601562 4.332031 11.503906 4.78125 11.503906 C 5.179688 11.503906 5.476562 11.601562 5.679688 11.804688 C 5.875 12.003906 5.976562 12.25 5.976562 12.597656 C 5.976562 12.75 5.976562 12.847656 5.925781 12.949219 C 5.925781 13.046875 5.875 13.148438 5.828125 13.246094 C 5.777344 13.347656 5.726562 13.449219 5.628906 13.546875 C 5.527344 13.644531 5.429688 13.746094 5.328125 13.847656 L 4.878906 14.292969 C 4.78125 14.394531 4.683594 14.492188 4.582031 14.589844 C 4.582031 14.691406 4.53125 14.792969 4.53125 14.839844 L 6.027344 14.839844 Z M 12.996094 11.007812 L 12.199219 11.007812 L 12.199219 8.214844 L 11.40625 8.214844 L 11.40625 7.667969 L 11.453125 7.667969 C 11.703125 7.667969 11.953125 7.621094 12.101562 7.519531 C 12.25 7.421875 12.351562 7.269531 12.402344 7.023438 L 12.996094 7.023438 Z M 21.464844 16.785156 C 21.414062 16.933594 21.363281 17.03125 21.265625 17.183594 C 21.164062 17.28125 21.015625 17.378906 20.867188 17.480469 C 20.71875 17.53125 20.46875 17.578125 20.21875 17.578125 C 19.820312 17.578125 19.523438 17.480469 19.371094 17.28125 C 19.175781 17.082031 19.074219 16.78125 19.074219 16.386719 L 19.871094 16.386719 C 19.773438 16.53125 19.820312 16.683594 19.871094 16.832031 C 19.921875 16.929688 20.070312 17.03125 20.21875 17.03125 C 20.316406 17.03125 20.417969 17.03125 20.46875 16.980469 C 20.519531 16.929688 20.566406 16.878906 20.617188 16.832031 C 20.667969 16.785156 20.667969 16.683594 20.667969 16.632812 C 20.667969 16.535156 20.667969 16.484375 20.667969 16.386719 C 20.667969 16.285156 20.667969 16.1875 20.667969 16.136719 C 20.667969 16.035156 20.617188 15.984375 20.566406 15.9375 C 20.519531 15.886719 20.46875 15.835938 20.417969 15.789062 C 20.367188 15.738281 20.269531 15.738281 20.167969 15.738281 L 19.917969 15.738281 L 19.917969 15.1875 L 20.167969 15.1875 C 20.269531 15.1875 20.316406 15.1875 20.367188 15.140625 C 20.417969 15.089844 20.46875 15.039062 20.515625 14.988281 C 20.566406 14.9375 20.566406 14.890625 20.617188 14.789062 C 20.617188 14.691406 20.667969 14.640625 20.667969 14.539062 C 20.667969 14.34375 20.617188 14.191406 20.566406 14.144531 C 20.515625 14.042969 20.417969 14.042969 20.269531 14.042969 C 20.167969 14.042969 20.121094 14.042969 20.070312 14.09375 C 20.019531 14.144531 19.96875 14.191406 19.917969 14.242188 C 19.871094 14.292969 19.871094 14.394531 19.871094 14.441406 C 19.871094 14.539062 19.871094 14.589844 19.871094 14.691406 L 19.125 14.691406 C 19.125 14.292969 19.222656 13.992188 19.421875 13.792969 C 19.621094 13.59375 19.917969 13.496094 20.269531 13.496094 C 20.617188 13.496094 20.917969 13.59375 21.117188 13.746094 C 21.3125 13.894531 21.414062 14.144531 21.414062 14.542969 C 21.414062 14.792969 21.363281 14.988281 21.265625 15.140625 C 21.164062 15.289062 21.015625 15.390625 20.816406 15.4375 C 21.066406 15.488281 21.261719 15.585938 21.363281 15.738281 C 21.464844 15.886719 21.515625 16.136719 21.515625 16.386719 C 21.515625 16.535156 21.515625 16.632812 21.464844 16.785156 Z M 21.464844 16.785156 "/>
</g>
</svg>
